<?xml version="1.0" encoding="UTF-8" standalone="no"?>
<!-- Created with Inkscape (http://www.inkscape.org/) -->

<svg
   xmlns:dc="http://purl.org/dc/elements/1.1/"
   xmlns:cc="http://creativecommons.org/ns#"
   xmlns:rdf="http://www.w3.org/1999/02/22-rdf-syntax-ns#"
   xmlns:svg="http://www.w3.org/2000/svg"
   xmlns="http://www.w3.org/2000/svg"
   xmlns:xlink="http://www.w3.org/1999/xlink"
   xmlns:sodipodi="http://sodipodi.sourceforge.net/DTD/sodipodi-0.dtd"
   xmlns:inkscape="http://www.inkscape.org/namespaces/inkscape"
   height="128"
   width="128"
   version="1.1"
   id="svg273"
   sodipodi:docname="Oxygen480-apps-tagua.svg"
   inkscape:export-filename="/home/nicolas/sources/boardgames/dockerized-boardgames-frontend/boardgames-frontend/public/logo192.png"
   inkscape:export-xdpi="144"
   inkscape:export-ydpi="144"
   inkscape:version="0.92.3 (2405546, 2018-03-11)">
  <metadata
     id="metadata277">
    <rdf:RDF>
      <cc:Work
         rdf:about="">
        <dc:format>image/svg+xml</dc:format>
        <dc:type
           rdf:resource="http://purl.org/dc/dcmitype/StillImage" />
      </cc:Work>
    </rdf:RDF>
  </metadata>
  <sodipodi:namedview
     pagecolor="#ffffff"
     bordercolor="#666666"
     borderopacity="1"
     objecttolerance="10"
     gridtolerance="10"
     guidetolerance="10"
     inkscape:pageopacity="0"
     inkscape:pageshadow="2"
     inkscape:window-width="852"
     inkscape:window-height="583"
     id="namedview275"
     showgrid="false"
     inkscape:zoom="1.84375"
     inkscape:cx="64"
     inkscape:cy="64"
     inkscape:window-x="568"
     inkscape:window-y="328"
     inkscape:window-maximized="0"
     inkscape:current-layer="svg273" />
  <defs
     id="defs171">
    <linearGradient
       id="linearGradient4888">
      <stop
         offset="0"
         stop-color="#fff"
         id="stop2" />
      <stop
         offset="1"
         stop-color="#fff"
         stop-opacity="0"
         id="stop4" />
    </linearGradient>
    <linearGradient
       id="linearGradient4622">
      <stop
         offset="0"
         stop-color="#6c6c6c"
         id="stop7" />
      <stop
         offset="1"
         stop-color="#080808"
         id="stop9" />
    </linearGradient>
    <linearGradient
       id="linearGradient4594">
      <stop
         offset="0"
         id="stop12" />
      <stop
         offset="1"
         stop-opacity="0"
         id="stop14" />
    </linearGradient>
    <linearGradient
       id="linearGradient3677">
      <stop
         offset="0"
         stop-color="#fff"
         id="stop17" />
      <stop
         offset=".08333334"
         stop-color="#8e8e8e"
         id="stop19" />
      <stop
         offset=".47916669"
         stop-color="#fff"
         id="stop21" />
      <stop
         offset=".875"
         stop-color="#767676"
         id="stop23" />
      <stop
         offset=".9375"
         stop-color="#fff"
         id="stop25" />
      <stop
         offset=".9675926"
         stop-color="#515151"
         id="stop27" />
      <stop
         offset="1"
         stop-color="#fff"
         id="stop29" />
    </linearGradient>
    <linearGradient
       id="linearGradient3393">
      <stop
         offset="0"
         stop-color="#323232"
         id="stop32" />
      <stop
         offset="1"
         stop-color="#888"
         id="stop34" />
    </linearGradient>
    <linearGradient
       id="linearGradient4010">
      <stop
         offset="0"
         stop-color="#313131"
         id="stop37" />
      <stop
         offset="1"
         stop-color="#828282"
         id="stop39" />
    </linearGradient>
    <filter
       id="filter3478">
      <feGaussianBlur
         stdDeviation="1.8761603"
         id="feGaussianBlur42" />
    </filter>
    <filter
       id="filter3587"
       height="1.194926"
       width="1.623761"
       x="-.31188"
       y="-.097463">
      <feGaussianBlur
         stdDeviation="1.5545848"
         id="feGaussianBlur45" />
    </filter>
    <filter
       id="filter3628">
      <feGaussianBlur
         stdDeviation=".76333439"
         id="feGaussianBlur48" />
    </filter>
    <filter
       id="filter3739">
      <feGaussianBlur
         stdDeviation="1.6903667"
         id="feGaussianBlur51" />
    </filter>
    <filter
       id="filter3852"
       height="1.36919"
       width="1.248466"
       x="-.124233"
       y="-.184595">
      <feGaussianBlur
         stdDeviation=".85086634"
         id="feGaussianBlur54" />
    </filter>
    <clipPath
       id="clipPath3878">
      <path
         d="m53.78125 23.4375c-3.931935-.000001-6.509032.13023-14.5625 1.625-7.883452 2.876012-9.055483 9.433231-10.78125 13.71875-2.603643 6.465511-2.189785 7.072467-6.96875 11.34375-1.786275 3.567429-1.217233 6.6996.96875 6.6875 3.515566.140443 2.573704 4.358701 7.6875 1.40625 4.134013-3.659838 8.590457-6.772359 12.625-7.3125 2.651914-.355035 4.318758-1.05121 6-4.78125 2.973734-1.658744 5.201901 10.49201 1.59375 14-7.315949 10.556317-8.78125 14.783284-8.78125 25.25 0 .122588.023468.254861.03125.375-.088773.293894-.125.572603-.125.875 0 2.052166 2.10033 3.909761 5.5625 5.34375.363558.150581.732214.328223 1.125.46875 3.630018 1.422439 8.403091 2.19374 13.34375 2.3125.114371.002749.229202-.002061.34375 0 .707738.024265 1.431052.03125 2.15625.03125 12.443805 0 22.531254-3.654032 22.53125-8.15625 0-.140694-.011761-.267298-.03125-.40625.196768-.528959.311013-1.079363.34375-1.65625 1.081434-18.754801-8.115496-57.831071-33.0625-61.125z"
         id="path57" />
    </clipPath>
    <filter
       id="filter3954">
      <feGaussianBlur
         stdDeviation="2.5593507"
         id="feGaussianBlur60" />
    </filter>
    <filter
       id="filter3280"
       height="1.248319"
       width="1.214725"
       x="-.107362"
       y="-.124159">
      <feGaussianBlur
         stdDeviation="1.7851291"
         id="feGaussianBlur63" />
    </filter>
    <filter
       id="filter3338"
       height="1.25933"
       width="1.401597"
       x="-.200798"
       y="-.129665">
      <feGaussianBlur
         stdDeviation=".98198011"
         id="feGaussianBlur66" />
    </filter>
    <filter
       id="filter3389"
       height="1.775681"
       width="1.192858"
       x="-.096429"
       y="-.38784">
      <feGaussianBlur
         stdDeviation=".9731751"
         id="feGaussianBlur69" />
    </filter>
    <filter
       id="filter3462"
       height="1.208027"
       width="1.092708"
       x="-.046354"
       y="-.104014">
      <feGaussianBlur
         stdDeviation="1.8166399"
         id="feGaussianBlur72" />
    </filter>
    <clipPath
       id="clipPath3478">
      <path
         d="m112.25559 85.162941a47.028755 20.958466 0 1 1 -94.057508 0 47.028755 20.958466 0 1 1 94.057508 0z"
         id="path75" />
    </clipPath>
    <linearGradient
       id="linearGradient3482"
       gradientUnits="userSpaceOnUse"
       spreadMethod="reflect"
       x1="18.198082"
       x2="65.392311"
       xlink:href="#linearGradient4010"
       y1="85.162941"
       y2="85.162941" />
    <filter
       id="filter3556"
       height="1.318323"
       width="1.141862"
       x="-.070931"
       y="-.159162">
      <feGaussianBlur
         stdDeviation="2.7798199"
         id="feGaussianBlur79" />
    </filter>
    <filter
       id="filter3673"
       height="1.209919"
       width="1.391373"
       x="-.195686"
       y="-.10496">
      <feGaussianBlur
         stdDeviation=".98296501"
         id="feGaussianBlur82" />
    </filter>
    <filter
       id="filter3727"
       height="1.20921"
       width="1.093235"
       x="-.046617"
       y="-.104605">
      <feGaussianBlur
         stdDeviation="1.8269644"
         id="feGaussianBlur85" />
    </filter>
    <clipPath
       id="clipPath3738">
      <path
         d="m112.25559 85.162941a47.028755 20.958466 0 1 1 -94.057508 0 47.028755 20.958466 0 1 1 94.057508 0z"
         id="path88" />
    </clipPath>
    <linearGradient
       id="linearGradient3742"
       gradientUnits="userSpaceOnUse"
       spreadMethod="reflect"
       x1="18.198082"
       x2="65.296089"
       xlink:href="#linearGradient4010"
       y1="85.162941"
       y2="85.162941" />
    <filter
       id="filter3768">
      <feGaussianBlur
         stdDeviation="1.7443486"
         id="feGaussianBlur92" />
    </filter>
    <filter
       id="filter3814">
      <feGaussianBlur
         stdDeviation="1.3917104"
         id="feGaussianBlur95" />
    </filter>
    <clipPath
       id="clipPath3957">
      <path
         d="m46.75 16.6875c.017266.11372.045333.171411.0625.28125.177512 1.135761.335085 2.134319.46875 2.9375.005782.035634.025622.089849.03125.125.063541.387506.115058.757412.15625 1.09375.040609.331573.081809.638463.09375.9375.001578.039523-.001009.085877 0 .125.000381.020052-.000231.04254 0 .0625.005524.311977-.026287.607138-.0625.90625-.0025.020394.002707.042118 0 .0625-.013556.10319-.04325.209056-.0625.3125-.039731.212646-.091117.406554-.15625.625-.094748.317705-.186293.650261-.34375 1-.165091.369686-.380913.75993-.625 1.1875.273189.125452.541064.228732.8125.3125.19544.062507.400328.081935.59375.125.180848.037753.353093.072255.53125.09375.031606.004297.062244.027459.09375.03125.305399.03207.612552.042036.90625.03125.01046-.000384.020809.000441.03125 0 1.567963-.066159 2.942305-.762141 3.75-1.875-1.137134-3.333642-2.920564-5.449743-6-8.125-.062503-.054299-.123908-.101463-.1875-.15625-.034507-.029729-.05892-.06387-.09375-.09375z"
         id="path98" />
    </clipPath>
    <filter
       id="filter4065"
       height="1.324489"
       width="1.495236"
       x="-.247618"
       y="-.162244">
      <feGaussianBlur
         stdDeviation=".6932014"
         id="feGaussianBlur101" />
    </filter>
    <filter
       id="filter4215"
       height="1.710612"
       width="1.237876"
       x="-.118938"
       y="-.355306">
      <feGaussianBlur
         stdDeviation=".34554629"
         id="feGaussianBlur104" />
    </filter>
    <filter
       id="filter4410"
       height="1.592789"
       width="1.549449"
       x="-.274725"
       y="-.296395">
      <feGaussianBlur
         stdDeviation=".60909628"
         id="feGaussianBlur107" />
    </filter>
    <filter
       id="filter4510"
       height="1.620506"
       width="1.641139"
       x="-.320569"
       y="-.310253">
      <feGaussianBlur
         stdDeviation=".71234071"
         id="feGaussianBlur110" />
    </filter>
    <clipPath
       id="clipPath4590">
      <path
         d="m112.25559 85.162941a47.028755 20.958466 0 1 1 -94.057508 0 47.028755 20.958466 0 1 1 94.057508 0z"
         id="path113" />
    </clipPath>
    <filter
       id="filter4618"
       height="1.639778"
       width="1.285118"
       x="-.142559"
       y="-.319889">
      <feGaussianBlur
         stdDeviation="5.5869825"
         id="feGaussianBlur116" />
    </filter>
    <filter
       id="filter4726"
       height="1.370493"
       width="1.343406"
       x="-.171703"
       y="-.185247">
      <feGaussianBlur
         stdDeviation=".38068518"
         id="feGaussianBlur119" />
    </filter>
    <filter
       id="filter4842"
       height="1.439604"
       width="1.439604"
       x="-.219802"
       y="-.219802">
      <feGaussianBlur
         stdDeviation=".16853826"
         id="feGaussianBlur122" />
    </filter>
    <filter
       id="filter4882"
       height="1.22211"
       width="1.229496"
       x="-.114748"
       y="-.111055">
      <feGaussianBlur
         stdDeviation=".25498255"
         id="feGaussianBlur125" />
    </filter>
    <filter
       id="filter4980"
       height="1.299469"
       width="1.478271"
       x="-.239136"
       y="-.149735">
      <feGaussianBlur
         stdDeviation="1.1473534"
         id="feGaussianBlur128" />
    </filter>
    <linearGradient
       id="linearGradient5035"
       gradientUnits="userSpaceOnUse"
       x1="49.676533"
       x2="50.806156"
       xlink:href="#linearGradient3393"
       y1="26.950584"
       y2="18.792673" />
    <linearGradient
       id="linearGradient5037"
       gradientUnits="userSpaceOnUse"
       x1="49.6744"
       x2="43.969467"
       xlink:href="#linearGradient3393"
       y1="19.515352"
       y2="23.399055" />
    <radialGradient
       id="radialGradient5039"
       cx="49.671875"
       cy="25.173965"
       gradientTransform="matrix(1.7233705 0 0 2.6302144 -35.931169 -39.271246)"
       gradientUnits="userSpaceOnUse"
       r="3.359375"
       xlink:href="#linearGradient4594" />
    <radialGradient
       id="radialGradient5047"
       cx="65.226837"
       cy="99.584976"
       gradientTransform="matrix(-.4082048 .1018389 -.05049675 -.1754665 96.881464 102.42134)"
       gradientUnits="userSpaceOnUse"
       r="47.028755"
       spreadMethod="reflect"
       xlink:href="#linearGradient3677" />
    <radialGradient
       id="radialGradient5051"
       cx="84.815948"
       cy="117.37907"
       fx="91.34565"
       fy="134.56099"
       gradientTransform="matrix(.435131 -.1367247 .0443092 .193917 42.708931 88.354757)"
       gradientUnits="userSpaceOnUse"
       r="47.028755"
       spreadMethod="reflect"
       xlink:href="#linearGradient3677" />
    <radialGradient
       id="radialGradient5059"
       cx="60.829292"
       cy="28.975164"
       gradientTransform="matrix(1.2495127 0 0 1.895987 -14.42885 -28.17091)"
       gradientUnits="userSpaceOnUse"
       r="24.046875"
       xlink:href="#linearGradient4888" />
    <radialGradient
       id="radialGradient5061"
       cx="51.231464"
       cy="70.109375"
       fx="47.637939"
       fy="70.173271"
       gradientTransform="matrix(1.8777113 0 0 3.1999891 -44.33429 -153.13361)"
       gradientUnits="userSpaceOnUse"
       r="5.981466"
       xlink:href="#linearGradient4888" />
    <linearGradient
       id="linearGradient5063"
       gradientUnits="userSpaceOnUse"
       x1="29.005547"
       x2="43.980087"
       xlink:href="#linearGradient4888"
       y1="29.76827"
       y2="44.742813" />
    <linearGradient
       id="linearGradient5065"
       gradientUnits="userSpaceOnUse"
       x1="86.875008"
       x2="52.906643"
       xlink:href="#linearGradient4594"
       y1="57.841034"
       y2="130.31097" />
    <linearGradient
       id="linearGradient5069"
       gradientUnits="userSpaceOnUse"
       x1="33.65905"
       x2="40.018074"
       xlink:href="#linearGradient4888"
       y1="28.940231"
       y2="51.146214" />
    <linearGradient
       id="linearGradient5071"
       gradientUnits="userSpaceOnUse"
       x1="33.315994"
       x2="53.658157"
       xlink:href="#linearGradient4888"
       y1="44.576777"
       y2="44.576778" />
    <linearGradient
       id="linearGradient5073"
       gradientUnits="userSpaceOnUse"
       x1="70.299744"
       x2="30.848763"
       y1="77.102982"
       y2="6.646932">
      <stop
         offset="0"
         stop-color="#1f1f1f"
         id="stop142" />
      <stop
         offset="1"
         stop-color="#1f1f1f"
         stop-opacity="0"
         id="stop144" />
    </linearGradient>
    <linearGradient
       id="linearGradient5079"
       gradientUnits="userSpaceOnUse"
       x1="74.253548"
       x2="68.581123"
       xlink:href="#linearGradient4594"
       y1="99.699013"
       y2="73.623146" />
    <radialGradient
       id="radialGradient5081"
       cx="63.875"
       cy="75.40625"
       fx="54.309761"
       fy="61.084599"
       gradientTransform="matrix(.8904915 0 0 .7700206 6.994853 17.341886)"
       gradientUnits="userSpaceOnUse"
       r="22.40625"
       xlink:href="#linearGradient4888" />
    <linearGradient
       id="linearGradient5083"
       gradientUnits="userSpaceOnUse"
       x1="56.956867"
       x2="56.01646"
       xlink:href="#linearGradient4594"
       y1="52.549522"
       y2="36.91853" />
    <radialGradient
       id="radialGradient5085"
       cx="48.328594"
       cy="30.129541"
       fx="44.687454"
       fy="27.091513"
       gradientTransform="matrix(.8330289 .00000024 -.00000016 .5324811 8.271696 12.064)"
       gradientUnits="userSpaceOnUse"
       r="12.110585"
       xlink:href="#linearGradient4888" />
    <linearGradient
       id="linearGradient5087"
       gradientUnits="userSpaceOnUse"
       x1="65.226837"
       x2="65.226837"
       xlink:href="#linearGradient4594"
       y1="91.697159"
       y2="82.64978" />
    <radialGradient
       id="radialGradient5089"
       cx="47.380135"
       cy="41.5005"
       gradientTransform="matrix(2.3775392 0 0 4.4326753 -65.267992 -149.30164)"
       gradientUnits="userSpaceOnUse"
       r="6.027795">
      <stop
         offset="0"
         stop-color="#151515"
         id="stop152" />
      <stop
         offset="1"
         stop-color="#151515"
         stop-opacity="0"
         id="stop154" />
    </radialGradient>
    <linearGradient
       id="linearGradient5091"
       gradientUnits="userSpaceOnUse"
       x1="65.226837"
       x2="65.226837"
       xlink:href="#linearGradient4594"
       y1="105.63309"
       y2="76.184807" />
    <linearGradient
       id="linearGradient5101"
       gradientUnits="userSpaceOnUse"
       x1="18.709265"
       x2="18.709265"
       xlink:href="#linearGradient4622"
       y1="46.415337"
       y2="44.575081" />
    <linearGradient
       id="linearGradient5103"
       gradientUnits="userSpaceOnUse"
       x1="69.227135"
       x2="69.227135"
       xlink:href="#linearGradient4594"
       y1="106.27036"
       y2="88.815453" />
    <linearGradient
       id="linearGradient5105"
       gradientUnits="userSpaceOnUse"
       x1="35.695892"
       x2="38.513222"
       xlink:href="#linearGradient4888"
       y1="29.725121"
       y2="40.239544" />
    <linearGradient
       id="linearGradient5112"
       gradientUnits="userSpaceOnUse"
       x1="26.75086314472"
       x2="24.92668987898"
       xlink:href="#linearGradient4622"
       y1="50.68535216556"
       y2="48.52951282574" />
    <radialGradient
       id="radialGradient5131"
       cx="67.923401"
       cy="51.933399"
       gradientTransform="matrix(1.385175 .3711565 -.900832 3.3619504 27.275978 -165.8216)"
       gradientUnits="userSpaceOnUse"
       r="14.837876"
       xlink:href="#linearGradient4888" />
    <radialGradient
       id="radialGradient5137"
       cx="48.940968"
       cy="70.109375"
       gradientTransform="matrix(1.863634 0 0 3.1759986 -43.343266 -154.48911)"
       gradientUnits="userSpaceOnUse"
       r="5.981466"
       xlink:href="#linearGradient4888" />
    <linearGradient
       id="linearGradient5144"
       gradientUnits="userSpaceOnUse"
       x1="36.17252174336"
       x2="34.80223863037"
       xlink:href="#linearGradient4622"
       y1="28.23274577067"
       y2="24.01130511996" />
    <radialGradient
       id="radialGradient5147"
       cx="64"
       cy="96.046875"
       gradientTransform="matrix(.6729464 0 0 1.2805632 24.511419 -26.016711)"
       gradientUnits="userSpaceOnUse"
       r="32.0625"
       xlink:href="#linearGradient4888" />
    <radialGradient
       id="radialGradient5151"
       cx="55.968952"
       cy="65.037224"
       fx="65.374695"
       fy="79.148933"
       gradientTransform="matrix(1.4561992 .03324061 -.03565081 1.5617852 -20.49611 -40.758179)"
       gradientUnits="userSpaceOnUse"
       r="33.259627">
      <stop
         offset="0"
         id="stop166" />
      <stop
         offset="1"
         stop-color="#393939"
         stop-opacity=".508571"
         id="stop168" />
    </radialGradient>
  </defs>
  <g
     id="g271">
    <g
       transform="matrix(1.1597973 0 0 1.1597973 -12.446025 -14.417523)"
       id="g183">
      <g
         fill-rule="evenodd"
         opacity=".8"
         id="g177">
        <path
           d="m46.322584 26.329772c1.926407-3.374505 1.216487-4.470218.433295-9.628663 3.261445 2.797885 5.101866 4.92566 6.274604 8.36368-1.292312 1.780575-4.000105 2.508436-6.707899 1.264983z"
           fill="url(#linearGradient5035)"
           id="path173" />
        <path
           d="m46.84375 16.78125c-.01631.072728-.015501.116345-.03125.1875.761549 4.87256 1.38394 6.074886-.5 9.375 1.004153.46112 2.005534.627977 2.9375.59375.01046-.000384.020809.000441.03125 0 .131766-.065804.251086-.13946.375-.21875.15886-3.526723-.725933-6.153442-2.625-9.78125-.062503-.054299-.123908-.101463-.1875-.15625z"
           fill="url(#linearGradient5037)"
           id="path175" />
      </g>
      <path
         d="m46.75 16.6875c.017266.11372.045333.171411.0625.28125.177512 1.135761.335085 2.134319.46875 2.9375.005782.035634.025622.089849.03125.125.063541.387506.115058.757412.15625 1.09375.040609.331573.081809.638463.09375.9375.001578.039523-.001009.085877 0 .125.000381.020052-.000231.04254 0 .0625.005524.311977-.026287.607138-.0625.90625-.0025.020394.002707.042118 0 .0625-.013556.10319-.04325.209056-.0625.3125-.039731.212646-.091117.406554-.15625.625-.094748.317705-.186293.650261-.34375 1-.165091.369686-.380913.75993-.625 1.1875.273189.125452.541064.228732.8125.3125.19544.062507.400328.081935.59375.125.180848.037753.353093.072255.53125.09375.031606.004297.062244.027459.09375.03125.305399.03207.612552.042036.90625.03125.01046-.000384.020809.000441.03125 0 1.567963-.066159 2.942305-.762141 3.75-1.875-1.137134-3.333642-2.920564-5.449743-6-8.125-.062503-.054299-.123908-.101463-.1875-.15625-.034507-.029729-.05892-.06387-.09375-.09375z"
         style="opacity:.8;fill:none;stroke-width:1.724439;clip-path:url(#clipPath3957);stroke:url(#radialGradient5039);filter:url(#filter4065)"
         clip-path="url(#clipPath3957)"
         id="path179" />
      <path
         d="m53.5 25.875a3.5 1.125 0 1 1 -7 0 3.5 1.125 0 1 1 7 0z"
         filter="url(#filter4215)"
         opacity=".579208"
         transform="matrix(1.1464436 -.1287397 .107523 1.3726629 -10.457888 -3.117279)"
         id="path181" />
    </g>
    <path
       d="m112.25559 85.162941a47.028755 20.958466 0 1 1 -94.057508 0 47.028755 20.958466 0 1 1 94.057508 0z"
       filter="url(#filter3462)"
       transform="matrix(.7950121 0 0 .8173921 15.723868 31.567262)"
       id="path185" />
    <path
       d="m112.25559 85.162941a47.028755 20.958466 0 1 1 -94.057508 0 47.028755 20.958466 0 1 1 94.057508 0z"
       fill="url(#linearGradient3482)"
       transform="matrix(.7909437 0 0 .933186 15.989235 18.318143)"
       id="path187" />
    <path
       d="m112.25559 85.162941a47.028755 20.958466 0 1 1 -94.057508 0 47.028755 20.958466 0 1 1 94.057508 0z"
       fill="url(#radialGradient5047)"
       transform="matrix(.713458 0 0 .766276 21.043383 26.766801)"
       id="path189" />
    <path
       d="m112.25559 85.162941a47.028755 20.958466 0 1 1 -94.057508 0 47.028755 20.958466 0 1 1 94.057508 0z"
       fill="#fff"
       filter="url(#filter3727)"
       opacity=".564356"
       transform="matrix(.713458 0 0 .766276 21.043383 26.766801)"
       id="path191" />
    <path
       d="m112.25559 85.162941a47.028755 20.958466 0 1 1 -94.057508 0 47.028755 20.958466 0 1 1 94.057508 0z"
       fill="url(#linearGradient3742)"
       transform="matrix(.6429863 0 0 .6530438 25.640025 34.651818)"
       id="path193" />
    <path
       d="m112.25559 85.162941a47.028755 20.958466 0 1 1 -94.057508 0 47.028755 20.958466 0 1 1 94.057508 0z"
       fill="url(#radialGradient5051)"
       transform="matrix(.5746651 0 0 .4900498 30.096404 45.102681)"
       id="path195" />
    <path
       d="m112.25559 85.162941a47.028755 20.958466 0 1 1 -94.057508 0 47.028755 20.958466 0 1 1 94.057508 0z"
       fill="#fff"
       filter="url(#filter3814)"
       opacity=".747525"
       transform="matrix(.5746651 0 0 .4900498 30.096404 45.102681)"
       id="path197" />
    <path
       d="m32.982265 38.489407c.849158-1.521413.076777-2.450421 1.328322-3.908726 1.450444-.980842 3.027601-.427116 3.992754-.86838-.70312 1.785138-.42627 2.734631-1.636495 4.087419-1.413666 1.269527-2.406056.747417-3.684581.689687z"
       fill-rule="evenodd"
       filter="url(#filter4410)"
       transform="matrix(1.1597973 0 0 1.1597973 -6.647038 -14.417523)"
       id="path199" />
    <path
       d="m55.72831 12.765226c-4.560247-.000001-7.549157.151041-16.889548 1.884671-9.143206 3.335591-10.502524 10.940636-12.504064 15.910969-3.019699 7.498682-2.539707 8.202628-8.082338 13.156451-2.071717 4.137494-1.411743 7.770178 1.123554 7.756144 4.077344.162886 2.984975 5.05521 8.915942 1.630965 4.794617-4.24467 9.963188-7.854564 14.64244-8.481018 3.075683-.411768 5.008884-1.21919 6.958784-5.545281 3.448929-1.923806 6.033151 12.168605 1.848427 16.237163-8.485018 12.243188-10.18447 17.145613-10.18447 29.284881 0 .142178.027218.295588.036244.434924-.102959.340858-.144975.664104-.144975 1.014823 0 2.380097 2.435957 4.53453 6.451373 6.197667.421653.174643.849219.380672 1.304772.543655 4.210085 1.649741 9.745882 2.544294 15.476045 2.682031.132647.003188.265828-.00239.39868 0 .820833.028143 1.65973.036244 2.500813.036244 14.432292 0 26.131688-4.237937 26.131683-9.459597 0-.163176-.01364-.310011-.036244-.471168.228211-.613485.360712-1.251842.398681-1.920914 1.254244-21.751767-9.412331-67.07232-38.345799-70.89261z"
       fill="url(#radialGradient5151)"
       fill-rule="evenodd"
       id="path201" />
    <path
       d="m33.077842 39.584984c.849158-1.521413.076777-2.450421 1.328322-3.908726 1.450444-.980842 3.027601-.427116 3.992754-.86838-.70312 1.785138-.42627 2.734631-1.636495 4.087419-1.413666 1.269527-2.406056.747417-3.684581.689687z"
       fill="#fff"
       fill-rule="evenodd"
       filter="url(#filter4726)"
       transform="matrix(1.1597973 0 0 1.1597973 -6.647038 -14.417523)"
       id="path203" />
    <path
       d="m67.579989 76.590321c-12.380474 0-23.014295 3.365752-27.69016 8.191069-5.892465 3.46087-9.495841 8.004366-9.495841 13.011476 0 10.796104 16.653206 19.571584 37.186001 19.571584 20.532799 0 37.186001-8.77548 37.186001-19.571584 0-5.007111-3.60338-9.550606-9.49584-13.011476-4.675866-4.825317-15.309688-8.191069-27.690161-8.191069z"
       fill="url(#radialGradient5147)"
       opacity=".722772"
       id="path205" />
    <g
       fill-rule="evenodd"
       id="g215">
      <path
         d="m31.716554 30.913136c.984851-1.764531.089045-2.841992 1.540584-4.53333 1.682221-1.137578 3.511403-.495368 4.630785-1.007145-.815476 2.070399-.494386 3.171618-1.898002 4.740578-1.639566 1.472394-2.790537.866852-4.273367.799897z"
         fill="url(#linearGradient5144)"
         id="path207" />
      <path
         d="m53.78125 24.78125c-3.784159 0-6.249206.123908-14 1.5625-.82496.300959-1.568826.654028-2.25 1.03125 3.498478-.430843 5.856891-.53125 8.78125-.53125 22.065994 2.913529 34.384785 28.001258 39.3125 50.90625-.865351-19.273011-10.200399-50.111026-31.84375-52.96875z"
         fill="url(#radialGradient5059)"
         filter="url(#filter3478)"
         opacity=".688119"
         transform="matrix(1.1597973 0 0 1.1597973 -6.647038 -14.417523)"
         id="path209" />
      <path
         d="m55.038394 52.075002c.221974 2.950574-.239421 6.126839-1.8125 7.65625-7.315949 10.556317-9.556254 16.19132-9.556254 26.658036 0 1.626066 3.242316 2.833165 4.962504 3.966964.045796-8.957387.611847-14.411414 7.34375-24.125 3.341009-3.248264 1.686938-13.914936-.9375-14.15625z"
         fill="url(#radialGradient5061)"
         filter="url(#filter3587)"
         opacity=".608911"
         transform="matrix(1.1597973 0 0 1.1597973 -6.647038 -14.417523)"
         id="path211" />
      <path
         d="m53.162271 24.53021c-3.690306-.000001-6.109033.122227-13.667592 1.525139-7.39899 2.699273-8.498997 8.853531-10.11871 12.875693-2.443642 6.068186-2.055216 6.637843-6.5405 10.646643-1.515125 3.025906-1.204177 5.708782.381285 6.188545-.673619-1.101149-.545972-3.164096.586592-5.425976 4.485283-4.0088 4.096859-4.578459 6.5405-10.646643 1.619713-4.022161 2.719721-10.176419 10.11871-12.875693 7.558559-1.402912 9.977288-1.495809 13.667592-1.495809 4.303203.568182 8.102109 2.270766 11.438542 4.780724-3.562654-2.925301-7.682444-4.948883-12.406419-5.572623zm-27.012558 32.467863c.35711.348799.702533.687222 1.114525.909217-.329317-.325419-.659408-.658285-1.114525-.909217z"
         fill="url(#linearGradient5063)"
         filter="url(#filter3628)"
         opacity=".658416"
         transform="matrix(1.1597973 0 0 1.1597973 -6.647038 -14.417523)"
         id="path213" />
    </g>
    <path
       d="m112.25559 85.162941a47.028755 20.958466 0 1 1 -94.057508 0 47.028755 20.958466 0 1 1 94.057508 0z"
       fill="url(#linearGradient5065)"
       opacity=".613861"
       transform="matrix(.5559462 0 0 .4513465 31.317378 47.619073)"
       id="path217" />
    <path
       d="m55.293386 49.19011c.22031 2.928455-.250897 6.056981-1.812183 7.574926-2.596864 3.747061-4.543296 6.881668-5.980205 9.822034 1.246392 1.218711 2.866777 2.275182 4.747921 3.189442.992955-2.002123 2.2802-4.149912 3.950559-6.560103 3.315963-3.22391 1.698671-13.786794-.906092-14.026299zm-9.278378 20.876352c-1.454748 3.995585-2.029645 7.97624-2.029645 13.15645 0 1.613877 3.221847 2.825261 4.929138 3.95056.026923-5.265702.258649-9.309346 1.812184-13.73635-1.883246-.955865-3.49839-2.105681-4.711677-3.37066z"
       fill="url(#radialGradient5137)"
       fill-rule="evenodd"
       opacity=".608911"
       id="path219" />
    <path
       d="m54.0625 24.0625c-3.898127-.000001-6.453276.111832-14.4375 1.59375-7.815669 2.851284-8.976571 9.345078-10.6875 13.59375-2.581258 6.409921-2.168375 7.015441-6.90625 11.25-1.728597 3.452239-1.227705 6.492781.8125 6.625-.711892-1.135264-.585606-3.300918.59375-5.65625 4.635046-4.142654 4.224765-4.729197 6.75-11 1.673796-4.15646 2.822711-10.523099 10.46875-13.3125 7.810937-1.449755 10.311476-1.562501 14.125-1.5625 21.927375 2.895225 31.308092 34.287154 32.09375 53.6875-.703317-19.800615-10.265954-52.241771-32.8125-55.21875zm-2.90625 23.625c1.631601 2.95691 2.138131 10.185102-.5 12.75-7.253045 10.465553-8.71875 14.654527-8.71875 25.03125.000001.121531.023535.224644.03125.34375-.08801.291366-.09375.575203-.09375.875-.000001 2.03452 2.067598 3.890841 5.5 5.3125.360433.149283.735591.329431 1.125.46875 3.598806 1.410211 8.320571 2.163511 13.21875 2.28125.113386.002727.230187-.002044.34375 0-4.71463-.132233-9.282353-.891184-12.75-2.25-.380958-.136295-.741141-.291457-1.09375-.4375-3.357906-1.390804-5.375001-3.197137-5.375-5.1875 0-.29329.038901-.558703.125-.84375-.007548-.116521-.031252-.256105-.03125-.375 0-10.15151 1.404372-14.261586 8.5-24.5 2.968669-2.886261 1.882975-11.811645-.28125-13.46875zm-25.90625 10.40625c.653491.587992 1.167384 1.266084 2.03125 1.4375-.557049-.523502-1.093906-1.154863-2.03125-1.4375z"
       fill="url(#linearGradient5069)"
       fill-rule="evenodd"
       filter="url(#filter3739)"
       opacity=".5"
       transform="matrix(1.1597973 0 0 1.1597973 -6.647038 -14.417523)"
       id="path221" />
    <path
       d="m42.034744 39.045527c-4.796933 0-8.718748 3.025321-8.71875 6.75 0 1.629546.759981 3.145969 2 4.3125-.614804-.925339-.96875-1.981418-.96875-3.09375.000001-3.724679 3.890567-6.71875 8.6875-6.71875 2.698274 0 5.12444.937674 6.71875 2.4375-1.438784-2.185079-4.343087-3.6875-7.71875-3.6875z"
       fill="url(#linearGradient5071)"
       filter="url(#filter3852)"
       opacity=".242574"
       transform="matrix(1.0044139 -.5798985 .5798985 1.0044139 -28.350001 16.802568)"
       id="path223" />
    <path
       clip-path="url(#clipPath3878)"
       d="m53.78125 23.4375c-3.931935-.000001-6.509032.13023-14.5625 1.625-7.883452 2.876012-9.055483 9.433231-10.78125 13.71875-2.603643 6.465511-2.189785 7.072467-6.96875 11.34375-1.786275 3.567429-1.217233 6.6996.96875 6.6875 3.515566.140443 2.573704 4.358701 7.6875 1.40625 4.134013-3.659838 8.590457-6.772359 12.625-7.3125 2.651914-.355035 4.318758-1.05121 6-4.78125 2.973734-1.658744 5.201901 10.49201 1.59375 14-7.315949 10.556317-8.78125 14.783284-8.78125 25.25 0 .122588.023468.254861.03125.375-.088773.293894-.125.572603-.125.875 0 2.052166 2.10033 3.909761 5.5625 5.34375.363558.150581.732214.328223 1.125.46875 3.630018 1.422439 8.403091 2.19374 13.34375 2.3125.114371.002749.229202-.002061.34375 0 .707738.024265 1.431052.03125 2.15625.03125 12.443805 0 22.531254-3.654032 22.53125-8.15625 0-.140694-.011761-.267298-.03125-.40625.196768-.528959.311013-1.079363.34375-1.65625 1.081434-18.754801-8.115496-57.831071-33.0625-61.125z"
       fill="none"
       filter="url(#filter3954)"
       stroke="url(#linearGradient5073)"
       stroke-width="4.311098"
       transform="matrix(1.1597973 0 0 1.1597973 -6.647038 -14.417523)"
       id="path225" />
    <path
       d="m58.555316 14.577409c6.819656 3.93733 12.620662 12.01477 16.019701 20.477672 3.305967.385115 6.281418 1.170808 8.625992 2.319594-5.543321-11.112039-13.612772-20.164675-24.645693-22.797266zm18.049346 26.566607c1.589924 4.371754-2.965429 10.156704 2.355838 13.228938 6.850715 3.929133 11.929493 10.572437 13.736349 18.48427-.713309-8.931697-2.860278-19.496756-6.705078-29.212395-2.509665-1.272726-5.748409-2.137096-9.387109-2.500813z"
       fill="url(#radialGradient5131)"
       fill-rule="evenodd"
       opacity=".585859"
       id="path227" />
    <path
       clip-path="url(#clipPath3878)"
       d="m53.78125 23.4375c-3.931935-.000001-6.509032.13023-14.5625 1.625-7.883452 2.876012-9.055483 9.433231-10.78125 13.71875-2.603643 6.465511-2.189785 7.072467-6.96875 11.34375-1.786275 3.567429-1.217233 6.6996.96875 6.6875 3.515566.140443 2.573704 4.358701 7.6875 1.40625 4.134013-3.659838 8.590457-6.772359 12.625-7.3125 2.651914-.355035 4.318758-1.05121 6-4.78125 2.973734-1.658744 5.201901 10.49201 1.59375 14-7.315949 10.556317-8.78125 14.783284-8.78125 25.25 0 .122588.023468.254861.03125.375-.088773.293894-.125.572603-.125.875 0 2.052166 2.10033 3.909761 5.5625 5.34375.363558.150581.732214.328223 1.125.46875 3.630018 1.422439 8.403091 2.19374 13.34375 2.3125.114371.002749.229202-.002061.34375 0 .707738.024265 1.431052.03125 2.15625.03125 12.443805 0 22.531254-3.654032 22.53125-8.15625 0-.140694-.011761-.267298-.03125-.40625.196768-.528959.311013-1.079363.34375-1.65625 1.081434-18.754801-8.115496-57.831071-33.0625-61.125z"
       fill="none"
       filter="url(#filter3954)"
       stroke="url(#linearGradient5073)"
       stroke-width="4.311098"
       transform="matrix(1.1597973 0 0 1.1597973 -6.647038 -14.417523)"
       id="path229" />
    <path
       d="m112.25559 85.162941a47.028755 20.958466 0 1 1 -94.057508 0 47.028755 20.958466 0 1 1 94.057508 0z"
       fill="url(#linearGradient5079)"
       transform="matrix(.5559462 0 0 .4513465 31.317378 47.619073)"
       id="path231" />
    <path
       d="m61.78791 58.152977c-3.168702 0-6.181365.658407-8.904915 1.864466-.260296.704619-.597174 1.333477-1.057459 1.780983-6.51479 9.400311-7.819628 13.164389-7.819628 22.484911 0 .109164.020898.226952.027828.333935-.079052.26171-.111312.509898-.111312.77918 0 1.827436 1.870326 3.481609 4.953359 4.758564.323746.134091.652031.29228 1.001803.417418 3.232501 1.26667 7.482882 1.953507 11.882497 2.059262.101846.002448.204102-.001836.306106 0 .630235.021607 1.27434.027827 1.920122.027827 8.124675 0 15.100004-1.744025 18.255077-4.257662 1.021948-2.539058 1.586188-5.305866 1.586188-8.209219 0-12.161577-9.878089-22.039666-22.039666-22.039665z"
       fill="url(#radialGradient5081)"
       filter="url(#filter3280)"
       opacity=".559406"
       transform="matrix(1.1597973 0 0 1.1597973 -6.647038 -14.417523)"
       id="path233" />
    <path
       d="m48.460064 37.41853c7.41733 3.788673 11.450473 9.985094 10.632588 17.175719"
       fill="none"
       filter="url(#filter3338)"
       opacity=".565657"
       stroke="url(#linearGradient5083)"
       stroke-width=".86222"
       transform="matrix(1.1597973 0 0 1.1597973 -6.647038 -14.417523)"
       id="path235" />
    <path
       d="m38.420221 29.118483c6.201159-2.696156 12.941549-2.696156 20.22117 0"
       style="fill:none;stroke-width:3.448878;stroke-linecap:round;stroke-linejoin:round;stroke:url(#radialGradient5085);filter:url(#filter3389)"
       transform="matrix(1.1570654 -.07955767 .07955767 1.1570654 -8.750619 -10.479738)"
       id="path237" />
    <path
       d="m112.25559 85.162941a47.028755 20.958466 0 1 1 -94.057508 0 47.028755 20.958466 0 1 1 94.057508 0z"
       style="fill:none;stroke-width:2.327947;stroke-linecap:round;stroke-linejoin:round;clip-path:url(#clipPath3478);stroke:url(#linearGradient5087);filter:url(#filter3556)"
       transform="matrix(.7909437 0 0 .933186 15.989235 18.318143)"
       clip-path="url(#clipPath3478)"
       id="path239" />
    <path
       d="m56.03125 38.1875c-1.023004.046008-2.087819.309871-3.0625.84375-2.647242.992569-4.801431 2.465009-4.25 6.65625l.03125.4375c2.19688-1.225416 3.981987 5.079427 3.3125 9.875 2.290463-5.584417 4.656449-11.014481 8.1875-14.53125 1.514755-1.664581-1.149738-3.419274-4.21875-3.28125zm-5.625 21.875c-.021018.021439-.041072.041666-.0625.0625-.078592.113403-.141502.200543-.21875.3125l.03125.21875c.083073-.196814.16744-.396083.25-.59375z"
       fill="url(#radialGradient5089)"
       fill-rule="evenodd"
       filter="url(#filter3673)"
       transform="matrix(1.1597973 0 0 1.1597973 -6.647038 -14.417523)"
       id="path241" />
    <path
       d="m112.25559 85.162941a47.028755 20.958466 0 1 1 -94.057508 0 47.028755 20.958466 0 1 1 94.057508 0z"
       style="fill:none;stroke-width:3.086441;stroke-linecap:round;stroke-linejoin:round;clip-path:url(#clipPath3738);stroke:url(#linearGradient5091);filter:url(#filter3768)"
       transform="matrix(.6429863 0 0 .6530438 25.640025 34.651818)"
       clip-path="url(#clipPath3738)"
       id="path243" />
    <g
       transform="matrix(1.1597973 0 0 1.1597973 -6.647038 -14.417523)"
       id="g255">
      <g
         fill-rule="evenodd"
         opacity=".8"
         id="g249">
        <path
           d="m46.322584 26.329772c1.926407-3.374505 1.216487-4.470218.433295-9.628663 3.261445 2.797885 5.101866 4.92566 6.274604 8.36368-1.292312 1.780575-4.000105 2.508436-6.707899 1.264983z"
           fill="url(#linearGradient5035)"
           id="path245" />
        <path
           d="m46.84375 16.78125c-.01631.072728-.015501.116345-.03125.1875.761549 4.87256 1.38394 6.074886-.5 9.375 1.004153.46112 2.005534.627977 2.9375.59375.01046-.000384.020809.000441.03125 0 .131766-.065804.251086-.13946.375-.21875.15886-3.526723-.725933-6.153442-2.625-9.78125-.062503-.054299-.123908-.101463-.1875-.15625z"
           fill="url(#linearGradient5037)"
           id="path247" />
      </g>
      <path
         d="m46.75 16.6875c.017266.11372.045333.171411.0625.28125.177512 1.135761.335085 2.134319.46875 2.9375.005782.035634.025622.089849.03125.125.063541.387506.115058.757412.15625 1.09375.040609.331573.081809.638463.09375.9375.001578.039523-.001009.085877 0 .125.000381.020052-.000231.04254 0 .0625.005524.311977-.026287.607138-.0625.90625-.0025.020394.002707.042118 0 .0625-.013556.10319-.04325.209056-.0625.3125-.039731.212646-.091117.406554-.15625.625-.094748.317705-.186293.650261-.34375 1-.165091.369686-.380913.75993-.625 1.1875.273189.125452.541064.228732.8125.3125.19544.062507.400328.081935.59375.125.180848.037753.353093.072255.53125.09375.031606.004297.062244.027459.09375.03125.305399.03207.612552.042036.90625.03125.01046-.000384.020809.000441.03125 0 1.567963-.066159 2.942305-.762141 3.75-1.875-1.137134-3.333642-2.920564-5.449743-6-8.125-.062503-.054299-.123908-.101463-.1875-.15625-.034507-.029729-.05892-.06387-.09375-.09375z"
         style="opacity:.8;fill:none;stroke-width:1.724439;clip-path:url(#clipPath3957);filter:url(#filter4065);stroke:url(#radialGradient5039)"
         clip-path="url(#clipPath3957)"
         id="path251" />
      <path
         d="m53.5 25.875a3.5 1.125 0 1 1 -7 0 3.5 1.125 0 1 1 7 0z"
         filter="url(#filter4215)"
         opacity=".579208"
         transform="matrix(1.1464436 -.1287397 .107523 1.3726629 -10.457888 -3.117279)"
         id="path253" />
    </g>
    <path
       d="m23.463259 56.445687s3.288339-1.317492 4.259585-2.953275 1.073482.511182 1.073482.511182c-.903454 3.118211-4.777722 3.238019-2.981629 4.384585z"
       fill-rule="evenodd"
       filter="url(#filter4510)"
       opacity=".544554"
       transform="matrix(1.0510609 0 0 1.0510609 -3.515829 -8.667782)"
       id="path257" />
    <path
       d="m23.968788 57.147899s3.288339-1.317492 4.259585-2.953275 1.073482.511182 1.073482.511182c-.903454 3.118211-4.777722 3.238019-2.981629 4.384585z"
       fill="#fff"
       fill-rule="evenodd"
       filter="url(#filter4882)"
       opacity=".806931"
       transform="matrix(1.0718462 0 0 1.0718462 -4.538957 -9.220458)"
       id="path259" />
    <path
       d="m20.565586 51.627931s3.813807-1.528024 4.940256-3.4252c1.126448-1.897177 1.245021.592867 1.245021.592867-1.047823 3.616493-5.541189 3.755446-3.458085 5.08523z"
       fill="url(#linearGradient5112)"
       fill-rule="evenodd"
       id="path261" />
    <path
       d="m19.629393 45.495209a.92012781.92012781 0 1 1 -1.840256 0 .92012781.92012781 0 1 1 1.840256 0z"
       fill="#fff"
       filter="url(#filter4842)"
       transform="matrix(1.9329955 0 0 1.8055542 -16.13292 -35.033583)"
       id="path263" />
    <path
       d="m19.629393 45.495209a.92012781.92012781 0 1 1 -1.840256 0 .92012781.92012781 0 1 1 1.840256 0z"
       fill="url(#linearGradient5101)"
       transform="matrix(1.9329955 0 0 1.9329955 -16.13292 -41.294189)"
       id="path265" />
    <path
       d="m112.25559 85.162941a47.028755 20.958466 0 1 1 -94.057508 0 47.028755 20.958466 0 1 1 94.057508 0z"
       style="opacity:.752475;fill:none;stroke-width:13.38124;stroke-linecap:round;stroke-linejoin:round;clip-path:url(#clipPath4590);stroke:url(#linearGradient5103);filter:url(#filter4618)"
       transform="matrix(.5620088 0 0 .635981 30.921936 28.110601)"
       clip-path="url(#clipPath4590)"
       id="path267" />
    <path
       d="m27.703002 45.093207c3.023718-9.982829 6.749985-15.493759 10.515007-17.390205"
       fill="none"
       filter="url(#filter4980)"
       stroke="url(#linearGradient5105)"
       stroke-width=".86222"
       transform="matrix(1.1597973 0 0 1.1597973 -6.647038 -14.417523)"
       id="path269" />
  </g>
</svg>
